<svg width="532" height="335" viewBox="0 0 532 335" fill="none" xmlns="http://www.w3.org/2000/svg">
<path d="M-26.24 312.32C-16.0213 336 10.8089 350.941 36.2667 344.754C48.6515 341.732 59.5984 334.494 67.2284 324.281C74.711 313.982 77.9215 301.188 76.1884 288.576C74.5884 276.423 68.7573 264.662 59.3067 256.718C50.6098 249.401 38.2435 245.654 27.0222 248.185C15.3884 250.838 7.85777 260.779 7.33155 272.526C6.75555 285.412 13.1627 297.906 22.0444 306.852C31.4098 316.231 44.352 322.198 57.728 319.744C71.104 317.291 79.8293 306.845 81.8275 293.668C84.1884 278.123 78.0587 263.339 75.2711 248.306C72.8569 235.13 74.0536 221.547 78.7342 208.996C87.6587 184.726 108.444 164.352 133.86 158.244C147.769 154.902 163.996 155.613 175.879 164.338C186.695 172.281 191.268 186.56 188.636 199.524C185.977 212.615 175.943 222.244 162.937 224.967C150.044 227.662 136.05 223.346 128.199 212.487C120.668 202.084 119.324 187.869 123.449 175.865C128 162.71 139.378 153.081 152.249 148.487C181.404 138.169 211.314 153.87 229.959 176.164C249.486 199.51 258.908 229.127 276.181 253.924C291.079 275.321 315.292 296.071 343.026 294.343C370.489 292.658 389.689 268.992 398.144 244.679C408.917 213.71 407.189 179.968 416.476 148.615C424.811 120.47 443.634 92.3238 474.076 85.6607C487.915 82.4981 502.442 85.7542 513.607 94.5211C523.961 102.656 531.285 115.378 529.899 128.846C528.476 142.784 518.158 154.688 505.621 160.27C490.688 166.912 472.811 164.736 458.539 157.426C435.563 145.643 420.978 120.043 420.978 94.3931C421.035 64.114 442.738 39.7513 466.731 23.9576C480.05 15.1967 494.464 8.31311 508.85 1.49356C509.781 1.05267 508.971 -0.326904 508.039 0.0713196C479.936 13.4473 450.318 27.8047 432.363 54.4216C424.811 65.6003 419.911 78.5282 419.42 92.1104C419.081 104.525 421.884 116.824 427.57 127.865C439.701 151.723 465.472 168.854 492.871 165.362C506.012 163.691 518.158 156.637 525.468 145.451C532.369 135.075 533.459 121.882 528.356 110.514C523.214 99.0651 512.932 90.1549 501.276 85.7602C488.903 81.0882 475.193 82.3967 463.154 87.4811C435.42 99.2002 420.203 126.827 413.134 154.759C409.138 170.525 407.346 186.688 405.248 202.788C403.044 219.748 400.348 237.078 393.216 252.779C387.406 265.579 378.475 277.419 366.5 284.992C354.22 292.757 339.189 294.851 325.255 290.738C295.737 282.205 277.248 255.254 263.609 229.582C249.65 203.314 236.985 174.713 211.698 157.206C200.014 149.113 186.098 143.694 171.748 143.609C158.748 143.524 145.572 147.762 135.481 156.061C125.76 163.976 119.938 175.71 119.516 188.238C119.132 199.83 123.378 211.876 132.43 219.435C141.483 226.994 154.311 229.035 165.525 225.998C177.038 222.877 186.148 214.35 189.476 202.838C192.704 191.68 190.649 178.88 183.538 169.614C175.211 158.756 161.038 154.603 147.826 154.845C122.325 155.321 99.136 170.795 85.5609 191.822C78.7126 202.326 74.3675 214.262 72.8604 226.71C72.1416 233.012 72.2564 239.381 73.2018 245.654C74.5031 254.294 77.1555 262.649 78.9689 271.182C82.048 285.696 82.2898 304.363 68.5227 313.721C55.2249 322.766 37.9449 318.55 26.4249 308.743C15.7582 299.627 7.65866 285.454 9.03821 271.019C9.69243 264.206 12.928 257.728 18.56 253.689C23.7867 249.942 30.3573 248.711 36.6933 249.145C65.8844 251.278 81.3227 285.284 72.4978 310.969C67.8329 324.509 56.6755 335.332 43.52 340.75C30.3088 346.18 15.4199 345.782 2.51732 339.655C-9.7166 333.905 -19.4439 323.905 -24.8533 311.517C-25.2658 310.571 -26.6453 311.389 -26.24 312.32Z" fill="url(#paint0_linear_0_797)"/>
<defs>
<linearGradient id="paint0_linear_0_797" x1="531.537" y1="46.7757" x2="124.45" y2="46.7757" gradientUnits="userSpaceOnUse">
<stop stop-color="#323259" stop-opacity="0.67"/>
<stop offset="1" stop-color="#323259"/>
</linearGradient>
</defs>
</svg>
