<svg width="540" height="491" viewBox="0 0 540 491" fill="none" xmlns="http://www.w3.org/2000/svg">
<path opacity="0.5" d="M66.9994 -49.9767C36.7294 -43.4467 12.5694 -18.8567 3.55937 10.3433C-5.77063 40.5933 3.65937 72.3433 26.9494 93.5433C49.4394 113.993 82.9494 123.643 112.049 112.463C139.269 102.003 162.919 72.1733 149.779 42.3533C138.679 17.1733 105.779 2.45329 80.0794 13.4433C54.3794 24.4333 41.8894 55.1933 46.5894 81.7533C52.5294 115.263 85.0894 133.753 114.859 143.123C150.919 154.543 192.929 156.223 222.469 182.503C245.759 203.223 257.179 235.503 254.859 266.333C253.798 281.783 248.9 296.724 240.609 309.803C231.439 323.993 215.789 336.143 198.529 337.803C179.329 339.653 165.529 324.923 164.139 306.433C162.629 286.103 174.949 268.333 186.659 252.903C209.029 223.443 237.659 194.113 274.819 185.033C307.729 177.033 347.309 186.093 364.759 217.423C384.539 252.943 370.459 295.333 349.489 326.673C338.109 343.673 324.579 359.183 311.259 374.673C297.719 390.423 284.059 406.093 271.259 422.483C247.039 453.563 225.909 487.673 216.799 526.413C208.249 562.753 210.799 601.833 230.969 634.023C249.709 664.023 279.969 685.193 312.149 698.763C352.349 715.763 396.049 722.443 438.649 730.583L575.289 756.703L640.809 769.223C642.219 769.493 642.809 767.333 641.409 767.053L506.409 741.243C462.489 732.853 418.259 725.423 374.639 715.583C335.809 706.813 296.859 694.043 265.429 668.773C251.509 657.583 239.269 644.153 230.379 628.593C220.836 611.596 215.414 592.597 214.549 573.123C210.199 488.413 272.939 423.503 323.669 363.613C347.829 335.073 372.669 303.293 375.989 264.613C377.439 247.893 374.789 230.413 366.399 215.703C358.67 202.43 346.723 192.123 332.459 186.423C301.679 173.773 267.009 180.643 239.629 198.073C224.329 207.843 210.999 220.423 199.099 234.023C186.949 247.923 174.239 263.193 166.859 280.243C160.579 294.763 159.149 312.653 168.409 326.313C176.689 338.513 191.349 342.373 205.219 338.883C235.429 331.283 252.879 300.693 256.569 271.633C260.219 242.813 251.789 212.263 232.949 190.023C208.949 161.733 171.489 154.943 137.239 146.803C104.799 139.103 64.9694 126.113 51.7394 91.9233C41.1694 64.6133 52.5094 28.4233 80.0094 15.9233C107.789 3.27329 145.649 22.9233 150.729 53.2133C156.829 89.5133 117.169 115.313 85.1194 114.943C53.0694 114.573 21.7294 93.9433 8.51937 64.7233C-5.21063 34.3033 4.42937 -1.69671 27.1594 -25.0367C38.0932 -36.4345 52.1522 -44.346 67.5694 -47.7767C68.9994 -48.0867 68.3794 -50.2467 66.9994 -49.9767Z" fill="#D1ECFD"/>
</svg>
