<svg width="641" height="643" viewBox="0 0 641 643" fill="none" xmlns="http://www.w3.org/2000/svg">
<path opacity="0.3" d="M-178.292 575.21C-171.762 605.48 -147.172 629.64 -117.972 638.65C-87.7224 647.98 -55.9724 638.55 -34.7724 615.26C-14.3224 592.77 -4.67239 559.26 -15.8524 530.16C-26.3124 502.94 -56.1424 479.29 -85.9624 492.43C-111.142 503.53 -125.862 536.43 -114.872 562.13C-103.882 587.83 -73.1224 600.32 -46.5624 595.62C-13.0524 589.68 5.43762 557.12 14.8076 527.35C26.2276 491.29 27.9076 449.28 54.1876 419.74C74.9076 396.45 107.188 385.03 138.018 387.35C153.467 388.411 168.408 393.309 181.488 401.6C195.678 410.77 207.828 426.42 209.488 443.68C211.338 462.88 196.608 476.68 178.118 478.07C157.788 479.58 140.018 467.26 124.588 455.55C95.1276 433.18 65.7976 404.55 56.7176 367.39C48.7176 334.48 57.7776 294.9 89.1076 277.45C124.628 257.67 167.018 271.75 198.358 292.72C215.358 304.1 230.868 317.63 246.358 330.95C262.108 344.49 277.778 358.15 294.168 370.95C325.248 395.17 359.358 416.3 398.098 425.41C434.438 433.96 473.518 431.41 505.708 411.24C535.708 392.5 556.878 362.24 570.448 330.06C587.448 289.86 594.128 246.16 602.268 203.56L628.388 66.9196L640.908 1.3996C641.178 -0.010376 639.018 -0.600403 638.738 0.799622L612.928 135.8C604.538 179.72 597.108 223.95 587.268 267.57C578.498 306.4 565.728 345.35 540.458 376.78C529.268 390.7 515.838 402.94 500.278 411.83C483.281 421.373 464.281 426.795 444.808 427.66C360.098 432.01 295.188 369.27 235.298 318.54C206.758 294.38 174.978 269.54 136.298 266.22C119.578 264.77 102.098 267.42 87.3876 275.81C74.114 283.539 63.8072 295.486 58.1076 309.75C45.4576 340.53 52.3276 375.2 69.7576 402.58C79.5276 417.88 92.1076 431.21 105.708 443.11C119.608 455.26 134.878 467.97 151.928 475.35C166.448 481.63 184.338 483.06 197.998 473.8C210.198 465.52 214.058 450.86 210.568 436.99C202.968 406.78 172.378 389.33 143.318 385.64C114.498 381.99 83.9476 390.42 61.7076 409.26C33.4176 433.26 26.6276 470.72 18.4876 504.97C10.7876 537.41 -2.20238 577.24 -36.3924 590.47C-63.7024 601.04 -99.8924 589.7 -112.392 562.2C-125.042 534.42 -105.392 496.56 -75.1024 491.48C-38.8024 485.38 -13.0024 525.04 -13.3724 557.09C-13.7424 589.14 -34.3724 620.48 -63.5924 633.69C-94.0124 647.42 -130.012 637.78 -153.352 615.05C-164.75 604.116 -172.662 590.057 -176.092 574.64C-176.402 573.21 -178.562 573.83 -178.292 575.21Z" fill="#9A97ED"/>
</svg>
