<svg width="871" height="322" viewBox="0 0 871 322" fill="none" xmlns="http://www.w3.org/2000/svg">
<path d="M0.137622 102.092C16.1775 132.901 48.1279 155.095 83.0415 157.434C113.947 159.476 147.902 145.807 162.079 116.889C174.638 91.2596 170.627 55.1768 145.825 38.1628C123.944 23.1486 89.2299 27.7998 73.8821 50.0126C58.3202 72.5191 69.9635 101.835 89.3276 117.671C112.826 136.957 144.607 135.285 171.229 123.71C206.612 108.375 231.482 78.2306 258.348 51.8069C283.413 27.1473 314.581 2.93277 351.429 2.2613C389.55 1.53932 420.573 29.7461 433.966 63.7132C440.752 80.9286 443.686 99.5125 443.93 117.959C444.186 136.668 441.611 155.702 434.426 173.09C421.234 204.975 388.265 232.623 351.92 224.841C336.154 221.46 321.352 211.74 313.738 197.297C306.284 183.149 307.347 166.242 314.158 152.078C321.013 137.706 333.206 126.578 348.142 121.06C363.709 115.406 380.906 115.693 396.726 120.155C435.709 131.165 461.015 166.084 477.572 201.007C493.461 234.521 504.911 271.81 532.875 297.772C544.226 308.316 557.939 316.804 573.202 320.13C588.876 323.52 604.796 320.71 619.21 313.889C655.243 296.902 675.995 260.557 708.32 238.557C734.892 220.483 767.4 211.769 799.437 213.013C815.487 213.601 831.334 216.8 846.356 222.484C864.376 229.376 880.077 241.146 898.232 247.696C912.466 252.822 929.726 254.282 943.14 246.092C958.955 236.438 963.803 217.181 969.266 200.756C974.446 185.142 983.521 166.631 1001.58 163.763C1003.01 163.533 1002.38 161.366 1000.97 161.603C984.907 164.16 975.273 179.031 969.648 193.076C962.702 210.432 959.869 232.497 942.941 243.563C927.502 253.677 907.538 249.691 891.744 242.696C875.058 235.243 860.003 224.792 842.635 218.794C813.357 208.661 780.957 208.152 751.165 216.402C736.218 220.512 722 226.921 709.021 235.397C692.604 246.179 679.156 260.565 665.532 274.558C640.727 299.914 608.598 327.426 570.412 317.117C535.153 307.563 513.562 274.729 499.002 243.611C482.295 207.82 469.288 169.653 439.395 142.19C415.72 120.453 381.347 107.765 349.662 118.162C323.145 126.907 302.712 154.357 306.768 182.907C311.063 213.009 342.985 231.56 371.726 227.926C405.45 223.652 430.219 195.441 439.973 164.337C450.241 131.506 448.415 92.4851 435.18 60.7571C422.308 29.9067 394.977 3.75009 360.612 0.382483C328.407 -2.77532 297.76 14.075 274.004 34.2988C243.412 60.3632 219.387 94.2975 184.176 114.65C157.248 130.227 121.692 138.068 94.4961 118.811C72.2479 103.054 58.2376 69.4088 79.363 46.7698C89.5128 35.8996 105.008 31.0251 119.619 31.8451C135.35 32.562 149.723 40.9684 158.059 54.3283C166.543 67.9426 168.63 84.9995 165.33 100.552C161.806 116.924 152.121 131.313 138.281 140.742C108.701 161.208 68.7002 159.113 38.7941 140.59C23.2272 130.907 10.5464 117.221 2.07688 100.962C1.40349 99.6583 -0.52833 100.809 0.137622 102.092Z" fill="#9A97ED"/>
</svg>
