<svg width="518" height="781" viewBox="0 0 518 781" fill="none" xmlns="http://www.w3.org/2000/svg">
<path d="M5.31006 0.777517C-5.70994 33.7175 0.520056 72.1175 23.0901 98.8575C43.0901 122.508 76.5101 137.438 107.16 127.548C134.32 118.778 157.49 90.8275 152.5 61.1675C148.1 34.9975 120.64 13.2575 94.0001 17.6475C67.0001 22.0875 54.0001 50.8275 56.0601 75.7575C58.5101 106.058 81.7901 127.758 108.61 138.868C144.22 153.668 183.18 150.618 220.85 151.588C256 152.488 295.07 158.088 321.15 184.128C348.15 211.048 349.41 252.958 334.28 286.188C326.61 303.028 315.28 318.048 302.18 331.038C288.9 344.217 273.42 355.588 255.92 362.498C223.82 375.158 181.03 370.647 161.38 339.098C152.86 325.408 149.57 308.008 154.67 292.498C159.67 277.308 172.57 266.328 187.49 261.388C202.59 256.336 219.065 257.376 233.41 264.288C248.29 271.557 260.03 284.128 267.81 298.608C286.97 334.298 279.43 376.758 265.81 412.928C252.74 447.638 233.87 481.777 234.62 519.927C234.92 535.417 238.34 551.178 246.55 564.468C255 578.098 268.08 587.598 283 593.228C320.25 607.348 360.81 597.028 399.09 604.997C430.55 611.557 459.4 628.888 480.76 652.798C491.486 664.752 500.194 678.373 506.54 693.128C514.1 710.878 516.54 730.348 524.44 747.958C530.64 761.758 541.58 775.188 556.79 779.148C574.72 783.818 591.94 773.927 607.55 766.448C622.38 759.328 642 752.997 656.61 763.997C657.77 764.867 658.89 762.907 657.74 762.057C644.74 752.277 627.35 755.677 613.34 761.388C596.03 768.448 578.19 781.737 558.47 777.247C540.47 773.167 529.47 756.037 523.53 739.818C517.3 722.638 514.36 704.547 506.61 687.888C493.56 659.788 471.42 636.128 444.79 620.427C431.45 612.531 416.964 606.755 401.85 603.307C382.69 598.987 363 599.308 343.47 599.228C308 598.998 265.89 594.997 246.78 560.367C229.16 528.367 237.78 490.028 250.05 457.938C264.19 421.058 282.61 385.188 281.6 344.608C280.79 312.478 266.04 278.938 236.55 263.368C211.84 250.368 177.9 254.738 160.18 277.488C141.51 301.488 150.34 337.338 172.92 355.488C199.42 376.778 236.92 374.998 266.07 360.408C296.82 344.988 323.62 316.568 337.25 285.008C350.5 254.318 350.33 216.488 328.88 189.428C308.78 164.068 275.37 153.728 244.32 150.688C204.32 146.788 163.22 153.078 124.12 141.888C94.2101 133.338 63.8701 113.208 58.8301 80.2675C54.7101 53.3175 69.1801 19.8675 100.14 19.3375C115.01 19.0875 129.28 26.8475 138.84 37.9275C149.252 49.7416 153.189 65.9202 149.37 81.1975C145.47 96.7575 134.65 110.108 121.17 118.538C106.945 127.375 89.8665 130.404 73.4701 126.998C38.2001 119.938 11.9201 89.7075 4.47006 55.3275C0.621677 37.4033 1.65776 18.7744 7.47006 1.38752C7.94006 -0.00248301 5.77006 -0.592483 5.31006 0.777517Z" fill="#9A97ED"/>
</svg>
